<svg xmlns="http://www.w3.org/2000/svg" xmlns:xlink="http://www.w3.org/1999/xlink" version="1.1" x="0px" y="0px" viewBox="0 0 1080 1350" enable-background="new 0 0 1080 1080" xml:space="preserve"><g><path d="M113.133,406.409c0,0-12.153,5.038-14.833,8c-6.333,7-8.667,37.5-8.667,37.5s4.255,1.365,5.667,2.167   c1.088,0.618,3.333,1.5,3.333,1.5s-17.355-0.932-23.5-1.167c-4.81-0.184-14.792-0.827-19.167-2.833   c-0.991-0.455-2.361-2.266-3.167-3c-0.982-0.895-4-3.5-4-3.5s-4-14.137,15.833-29C80.205,404.407,113.133,406.409,113.133,406.409z   "/><path d="M150.071,331.481c0,0,6.11-19.082,8.656-25.25c2.706-6.553,12.406-25.5,12.406-25.5s-4.167-0.337-5.5,0   c-5.875,1.486-15.248,8.782-21.25,9.625c-4.806,0.675-20.25-2.5-20.25-2.5s-20.399-14.31-30.5,2.625   c-4.25,7.125,15.375,10.75,15.375,10.75s20.077,10.318,25.375,14.25C139.45,319.241,150.071,331.481,150.071,331.481z"/><path d="M223.383,252c0,0,3.289-2.006,4.184-2.699c0.795-0.617,2.433-2.82,2.433-2.82v-15.25l2.883-5.231H243v17.231   c0,0,2.903,4,4.067,5.07c1.15,1.057,5.316,3.699,5.316,3.699H223.383z"/><path d="M956,252h48.634c0,0-2.515-7.427-4.337-9.135c-2.918-2.735-10.936-5.534-14.9-6.067   c-7.266-0.978-29.396-0.067-29.396-0.067V252z"/><path d="M449,497.787v-0.172C449,475.201,459.321,456,474.079,447h-2.797C446.449,447,426,467.968,426,494.625v0.145   c0,24.83,17.627,45.005,40.11,47.656C455.706,532.032,449,515.966,449,497.787z"/><circle cx="297.633" cy="460.731" r="16"/><circle cx="177.633" cy="789.73" r="16"/><path d="M1027.134,280.231l-4-12l-6.034-0.207L1012.634,256h-825c0,0-30.098,59.048-34.5,80.536   c-2.249,10.979,1.681,33.093,0,44.762c-2.167,15.041-27.167,23.976-49.229,35.625c-7.52,3.971-8.537,32.91-8.537,32.91   s69.932,16.744,54.439,78.26c-4.342,17.24-28.829,66.851-28.829,66.851l4.878,9.754c0,0-56.535,102.052-74.829,158.974   c-15.393,47.896,16.292,60.536,16.292,60.536l209.756,29.268c0,0,25.558,2.096,27.558-4.904   c2.092-7.322-10.485-12.168-10.485-12.168l76.829-250.037c0,0,13.322-15.471,21.656-17.805c5.952-1.666,9-4.332,27.125-6.549   l114.875-1.219c0,0,30.268-4.176,42.333-23.562c18.667-29.996,15.305-47.348,15.305-47.348s-1.269-28.02,14.362-44.315   c15.667-16.333,47.272-14.837,47.272-14.837l172.729-2l2.441-9l184.059-2l2-15.5l6-0.976l2-25.024l5-33l4.915-0.325l0.144-62.991   L1027.134,280.231z M131.02,441.458c-5.033,0-9.113-4.081-9.113-9.113c0-5.033,4.081-9.113,9.113-9.113   c5.033,0,9.113,4.08,9.113,9.113C140.133,437.377,136.053,441.458,131.02,441.458z M523.633,392.231c6.351,0,11.5,5.149,11.5,11.5   s-5.149,11.5-11.5,11.5s-11.5-5.149-11.5-11.5S517.282,392.231,523.633,392.231z M389.967,290l-23.334,91h-6.75l23.583-91H389.967z    M370.967,290l-23.334,91h-6.75l23.583-91H370.967z M356.967,290l-23.334,91h-6.75l23.583-91H356.967z M338.967,290l-23.334,91   h-6.75l23.583-91H338.967z M319.967,290l-23.334,91h-6.75l23.583-91H319.967z M303.967,290l-23.334,91h-6.75l23.583-91H303.967z    M285.967,290l-23.334,91h-6.75l23.583-91H285.967z M260.466,290h6.501l-23.334,91h-6.75L260.466,290z M220.312,428.814   c4.044,0,7.322,3.278,7.322,7.321s-3.278,7.322-7.322,7.322c-4.043,0-7.321-3.278-7.321-7.322S216.269,428.814,220.312,428.814z    M176.02,396.231c5.585,0,10.113,4.528,10.113,10.113c0,5.585-4.528,10.113-10.113,10.113c-5.585,0-10.113-4.528-10.113-10.113   C165.907,400.759,170.435,396.231,176.02,396.231z M96.02,824.457c-5.033,0-9.113-4.08-9.113-9.113s4.081-9.113,9.113-9.113   c5.033,0,9.113,4.08,9.113,9.113S101.053,824.457,96.02,824.457z M356.3,501.899c0,0-10.852,7.653-13.333,16.334   c-2.667,9.329,1.667,21.698,1.667,21.698l-96.645,309.485l-137.592-19.199c0,0-2.095-15.469-4.429-19.648   c-3.24-5.799-15.667-20.666-15.667-20.666l155-386.669c0,0,19.667-7.695,46.667-7.667c50.028,0.052,88.333,24.333,88.333,24.333   L356.3,501.899z M384.633,381h-6.75l23.583-91h6.501L384.633,381z M581,494.984C581,524.858,558.894,549,531.064,549h-60.709   C442.526,549,420,524.858,420,494.984v-0.162C420,464.948,442.526,441,470.355,441h60.709c27.83,0,49.936,23.948,49.936,53.822   V494.984z"/></g><text transform="matrix(1 0 0 1 -88.2397 1262.293)" font-family="'MyriadPro-Regular'" font-size="91.6352">Created by Benjamin Sommerlad</text><text x="0" y="1095" fill="#000000" font-size="5px" font-weight="bold" font-family="'Helvetica Neue', Helvetica, Arial-Unicode, Arial, Sans-serif">Created by Benjamin Sommerlad</text><text x="0" y="1100" fill="#000000" font-size="5px" font-weight="bold" font-family="'Helvetica Neue', Helvetica, Arial-Unicode, Arial, Sans-serif">from the Noun Project</text></svg>