<svg xmlns="http://www.w3.org/2000/svg" xmlns:xlink="http://www.w3.org/1999/xlink" version="1.1" x="0px" y="0px" viewBox="0 0 1080 1350" enable-background="new 0 0 1080 1080" xml:space="preserve"><text transform="matrix(1 0 0 1 -88.2397 1262.293)" font-family="'MyriadPro-Regular'" font-size="91.6352">Created by Benjamin Sommerlad</text><g><path d="M142.833,358c0,0-15.679,12.557-13.583,25.125c1.833,11,27.708,7.937,39.125,12.937   C197.983,409.03,207.833,435,207.833,435h-5c0,0,3.175,30.84-4.333,61.708c-9,36.999-46.497,97.449-63.333,129.271   c-9.098,17.196-26.539,50.072-33.334,68.302c-5.943,15.946-18.666,66.984-18.666,66.984s23.666,28.324,46.666,32.658   c5.805,1.094,22.667,6.662,22.667,6.662l-11.333,26.665c0,0-2,6.507,2,10.999c2.137,2.399,8.666,3.084,8.666,3.084L310.5,856.75   c0,0,15.757-0.885,19.25-3c2.614-1.583,5.267-9.14,5.583-11.834c0.721-6.125-1-22.669-1-22.669s22.501,1.12,28.603-2.631   c2.717-1.67,7.224-7.177,6.397-10.036c-8.999-31.156-4.002-32.924-1-43.333c7.835-27.163,26.181-25.815,31.5-36.667   c5.002-10.203-9.832-13.868,2-48c10.823-31.22,35.202-27.98,31.667-40c-9.332-31.726-2.872-31.571,3.667-46.666   c9.44-21.794,13.168-29.894,32-33.667c12.256-2.456,36.059,12.303,48,16c6.219,1.926,25.668,3.384,25.668,3.384l168.331-7.051   c0,0,8.099-0.682,8.667-3c2.001-8.163-3.729-16.681-4.667-20.33c-6.414-24.941-13.441-78.646,2.334-99.003   c14.834-19.142,34.908-19.65,34.908-19.65l192.758-6.014c0,0,21.368-0.456,26.667-4.667c6.5-5.166,9.005-13.367,10.333-18.458   c2.629-10.077,4.237-24.458,5.191-41.458H142.833z M239.009,498.75c-4.597,0-8.324-3.727-8.324-8.324s3.728-8.324,8.324-8.324   c4.598,0,8.324,3.727,8.324,8.324S243.606,498.75,239.009,498.75z M564.333,410.5c0,6.213-5.037,11.25-11.25,11.25   s-11.25-5.037-11.25-11.25s5.037-11.25,11.25-11.25S564.333,404.287,564.333,410.5z M537.009,365.102   c4.598,0,8.324,3.727,8.324,8.324s-3.727,8.324-8.324,8.324c-4.597,0-8.324-3.727-8.324-8.324S532.412,365.102,537.009,365.102z    M677.333,505.75c0,18.226-21.774,40-40,40l-111,4c-18.226,0-43-22.774-43-41l-1-14c0-18.226,19.561-41.371,38-47l121-17   c18.226,0,37,19.774,37,38L677.333,505.75z"/><path d="M987.857,263c-0.016,0-0.024-0.542-0.024-0.542s0.778-6.021-2.667-10.271c-2.523-3.113-8.333-4.468-8.333-4.468l-820-2.984   c0,0-5.792,0.178-9.167,3.008c-3.875,3.25-4.667,7.508-4.667,7.508V354h49v-95h16v95h9v-95h16v95h9v-95h16v95h9v-95h16v95h9v-95h16   v95h9v-95h16v95h10v-95h16v95h628.578c0.404-8,0.666-16,0.825-24H997v-67H987.857z"/><polygon points="171.833,223 205.833,223 211.333,240 166.833,240  "/><polygon points="966.333,243 956.833,229 910.833,229 905.333,243  "/><path d="M556.833,448.25l-36,6c0,0-10.833,5.333-16,11c-2.504,2.747-8,11-8,11s9.008,6.574,12.5,8.5c2.791,1.539,12.5,5.5,12.5,5.5   s12.099,23.372,19,30c6.834,6.563,25.607,19.229,34.5,22.5c1.995,0.733,8.337,1.778,9.5,0c1.195-1.827-2.325-7.16-3.5-9   c-5.326-8.342-18.704-29.506-21.5-39C556.102,482.078,556.833,448.25,556.833,448.25z"/></g><text x="0" y="1095" fill="#000000" font-size="5px" font-weight="bold" font-family="'Helvetica Neue', Helvetica, Arial-Unicode, Arial, Sans-serif">Created by Benjamin Sommerlad</text><text x="0" y="1100" fill="#000000" font-size="5px" font-weight="bold" font-family="'Helvetica Neue', Helvetica, Arial-Unicode, Arial, Sans-serif">from the Noun Project</text></svg>